<svg xmlns="http://www.w3.org/2000/svg" viewBox="0 0 1600 900" font-family="Inter, system-ui, sans-serif">
  <defs>
    <linearGradient id="bg4" x1="0" y1="0" x2="1" y2="1">
      <stop offset="0%" stop-color="#0f172a"/>
      <stop offset="100%" stop-color="#1e293b"/>
    </linearGradient>
    <pattern id="grid4" width="40" height="40" patternUnits="userSpaceOnUse">
      <path d="M 40 0 L 0 0 0 40" fill="none" stroke="#334155" stroke-width="0.5" opacity="0.3"/>
    </pattern>
  </defs>
  <rect width="1600" height="900" fill="url(#bg4)"/>
  <rect width="1600" height="900" fill="url(#grid4)"/>
  <rect x="40" y="60" width="760" height="800" fill="#1e293b" stroke="#334155" rx="12"/>
  <text x="70" y="100" fill="#14b8a6" font-size="14" font-weight="600">LIBRARY</text>
  <text x="70" y="125" fill="#64748b" font-size="12">PDF · DOCX · XLSX · PPTX — semantic + lexical search</text>
  <rect x="70" y="145" width="700" height="40" fill="#0f172a" stroke="#334155" rx="6"/>
  <text x="85" y="170" fill="#64748b" font-size="13">🔍  Search documents…</text>
  <g>
    <rect x="70" y="205" width="700" height="80" fill="#0f172a" stroke="#334155" rx="8"/>
    <rect x="86" y="221" width="48" height="48" fill="#7f1d1d" rx="6"/>
    <text x="110" y="252" fill="#fca5a5" font-size="13" font-weight="700" text-anchor="middle">PDF</text>
    <text x="150" y="240" fill="#e2e8f0" font-size="14" font-weight="600">Annual_Report_2025.pdf</text>
    <text x="150" y="260" fill="#64748b" font-size="11">42 pages · 156 chunks · indexed</text>
    <circle cx="740" cy="245" r="5" fill="#22c55e"/>
  </g>
  <g>
    <rect x="70" y="305" width="700" height="80" fill="#0f172a" stroke="#334155" rx="8"/>
    <rect x="86" y="321" width="48" height="48" fill="#1e3a8a" rx="6"/>
    <text x="110" y="352" fill="#93c5fd" font-size="12" font-weight="700" text-anchor="middle">DOCX</text>
    <text x="150" y="340" fill="#e2e8f0" font-size="14" font-weight="600">Spec_Agent_V2.docx</text>
    <text x="150" y="360" fill="#64748b" font-size="11">18 pages · linked to [[Projet CortX]]</text>
    <circle cx="740" cy="345" r="5" fill="#22c55e"/>
  </g>
  <g>
    <rect x="70" y="405" width="700" height="80" fill="#0f172a" stroke="#334155" rx="8"/>
    <rect x="86" y="421" width="48" height="48" fill="#14532d" rx="6"/>
    <text x="110" y="452" fill="#86efac" font-size="12" font-weight="700" text-anchor="middle">XLSX</text>
    <text x="150" y="440" fill="#e2e8f0" font-size="14" font-weight="600">Contacts_Q1.xlsx</text>
    <text x="150" y="460" fill="#64748b" font-size="11">3 sheets · auto-linked 12 entities</text>
    <circle cx="740" cy="445" r="5" fill="#22c55e"/>
  </g>
  <g>
    <rect x="70" y="505" width="700" height="80" fill="#0f172a" stroke="#334155" rx="8"/>
    <rect x="86" y="521" width="48" height="48" fill="#78350f" rx="6"/>
    <text x="110" y="552" fill="#fcd34d" font-size="12" font-weight="700" text-anchor="middle">PPTX</text>
    <text x="150" y="540" fill="#e2e8f0" font-size="14" font-weight="600">Pitch_Deck.pptx</text>
    <text x="150" y="560" fill="#64748b" font-size="11">24 slides · 89 chunks</text>
    <circle cx="740" cy="545" r="5" fill="#f59e0b"/>
  </g>
  <rect x="820" y="60" width="740" height="800" fill="#1e293b" stroke="#334155" rx="12"/>
  <text x="850" y="100" fill="#14b8a6" font-size="14" font-weight="600">IDLE MODE · passive insights</text>
  <g>
    <circle cx="870" cy="130" r="6" fill="#14b8a6">
      <animate attributeName="opacity" values="0.3;1;0.3" dur="2s" repeatCount="indefinite"/>
    </circle>
    <text x="885" y="135" fill="#94a3b8" font-size="12">thinking · examining Projet CortX</text>
  </g>
  <rect x="850" y="160" width="680" height="150" fill="#0f172a" stroke="#0d9488" stroke-width="1" rx="10"/>
  <text x="870" y="190" fill="#14b8a6" font-size="12" font-weight="600">💡 CONNECTION FOUND</text>
  <text x="870" y="220" fill="#e2e8f0" font-size="14" font-weight="600">Sophie Martin ↔ SCAF Program</text>
  <text x="870" y="250" fill="#94a3b8" font-size="12">Both files reference Dassault Aviation but are not</text>
  <text x="870" y="270" fill="#94a3b8" font-size="12">cross-linked. Proposed relation: collaborateur_sur.</text>
  <rect x="1380" y="285" width="120" height="26" fill="#0d9488" rx="6"/>
  <text x="1440" y="303" fill="#ffffff" font-size="11" font-weight="600" text-anchor="middle">Archive ·fiche</text>
  <rect x="850" y="330" width="680" height="130" fill="#0f172a" stroke="#334155" rx="10"/>
  <text x="870" y="360" fill="#f59e0b" font-size="12" font-weight="600">⚠ CONTRADICTION</text>
  <text x="870" y="390" fill="#e2e8f0" font-size="14" font-weight="600">SCAF timeline · conflicting dates</text>
  <text x="870" y="420" fill="#94a3b8" font-size="12">Journal/2026-03-12 says 2030; Aerospatial.md says 2031.</text>
  <rect x="850" y="480" width="680" height="130" fill="#0f172a" stroke="#334155" rx="10"/>
  <text x="870" y="510" fill="#a855f7" font-size="12" font-weight="600">🧩 GAP</text>
  <text x="870" y="540" fill="#e2e8f0" font-size="14" font-weight="600">Entreprise Thales · no direct relations</text>
  <text x="870" y="570" fill="#94a3b8" font-size="12">Mentioned in 4 files but has no outgoing wikilinks.</text>
  <rect x="850" y="630" width="680" height="130" fill="#0f172a" stroke="#334155" rx="10"/>
  <text x="870" y="660" fill="#3b82f6" font-size="12" font-weight="600">🔁 PATTERN</text>
  <text x="870" y="690" fill="#e2e8f0" font-size="14" font-weight="600">3 contacts ont quitté Thales en 6 mois</text>
  <text x="870" y="720" fill="#94a3b8" font-size="12">Sophie Martin, Alex Durand, Paul Bernard.</text>
  <text x="800" y="830" fill="#475569" font-size="22" font-weight="700" text-anchor="middle" opacity="0.3">[ Screenshot · Library + Idle Insights ]</text>
</svg>
